<svg width="50" height="50" viewBox="0 0 50 50" fill="none" xmlns="http://www.w3.org/2000/svg">
<g clip-path="url(#clip0_109_3)">
<rect width="50" height="50" fill="#3C3C53"/>
<path d="M28.16 41V11.84H34.604V36.644H41.3V41H28.16Z" fill="#2196F3"/>
<path d="M16.9 41.432C15.076 41.432 13.552 41.108 12.328 40.46C11.104 39.812 10.18 38.816 9.556 37.472C8.932 36.104 8.584 34.34 8.512 32.18L14.02 31.352C14.044 32.6 14.152 33.608 14.344 34.376C14.56 35.144 14.848 35.696 15.208 36.032C15.592 36.368 16.048 36.536 16.576 36.536C17.248 36.536 17.68 36.308 17.872 35.852C18.088 35.396 18.196 34.916 18.196 34.412C18.196 33.212 17.908 32.204 17.332 31.388C16.756 30.548 15.976 29.708 14.992 28.868L12.472 26.672C11.368 25.736 10.432 24.68 9.664 23.504C8.92 22.304 8.548 20.828 8.548 19.076C8.548 16.604 9.28 14.72 10.744 13.424C12.208 12.104 14.2 11.444 16.72 11.444C18.28 11.444 19.528 11.708 20.464 12.236C21.424 12.764 22.144 13.46 22.624 14.324C23.128 15.164 23.464 16.064 23.632 17.024C23.824 17.96 23.932 18.86 23.956 19.724L18.412 20.408C18.388 19.544 18.328 18.8 18.232 18.176C18.16 17.528 17.992 17.036 17.728 16.7C17.464 16.34 17.056 16.16 16.504 16.16C15.904 16.16 15.46 16.412 15.172 16.916C14.908 17.42 14.776 17.924 14.776 18.428C14.776 19.508 15.028 20.396 15.532 21.092C16.06 21.764 16.744 22.472 17.584 23.216L19.996 25.34C21.268 26.42 22.336 27.644 23.2 29.012C24.088 30.38 24.532 32.072 24.532 34.088C24.532 35.456 24.22 36.704 23.596 37.832C22.972 38.936 22.084 39.812 20.932 40.46C19.804 41.108 18.46 41.432 16.9 41.432Z" fill="white"/>
</g>
<defs>
<clipPath id="clip0_109_3">
<rect width="50" height="50" fill="white"/>
</clipPath>
</defs>
</svg>
